<svg xmlns="http://www.w3.org/2000/svg" xmlns:xlink="http://www.w3.org/1999/xlink" zoomAndPan="magnify" preserveAspectRatio="xMidYMid meet" version="1.0" viewBox="7.55 48.03 403.22 196.72"><defs><g/><clipPath id="8067a44ac8"><path d="M 374 147 L 411 147 L 411 190.945312 L 374 190.945312 Z M 374 147 " clip-rule="nonzero"/></clipPath><clipPath id="4c3e925102"><path d="M 309 147 L 355 147 L 355 190.945312 L 309 190.945312 Z M 309 147 " clip-rule="nonzero"/></clipPath><clipPath id="a58d0240f1"><path d="M 264 147 L 309 147 L 309 190.945312 L 264 190.945312 Z M 264 147 " clip-rule="nonzero"/></clipPath><clipPath id="00a2cfa12d"><path d="M 178 147 L 216 147 L 216 190.945312 L 178 190.945312 Z M 178 147 " clip-rule="nonzero"/></clipPath><clipPath id="14868cbddf"><path d="M 141 147 L 178 147 L 178 190.945312 L 141 190.945312 Z M 141 147 " clip-rule="nonzero"/></clipPath><clipPath id="0d872c4480"><path d="M 27 159 L 109 159 L 109 190.777344 L 27 190.777344 Z M 27 159 " clip-rule="nonzero"/></clipPath><clipPath id="309166b89a"><path d="M 7.554688 65.136719 L 126.535156 65.136719 L 126.535156 157 L 7.554688 157 Z M 7.554688 65.136719 " clip-rule="nonzero"/></clipPath></defs><g clip-path="url(#8067a44ac8)"><path fill="#d1422e" d="M 394.703125 147.804688 C 397.328125 147.804688 399.730469 148.03125 401.902344 148.488281 C 404.074219 148.90625 405.890625 149.394531 407.347656 149.945312 C 408.839844 150.496094 409.796875 150.949219 410.21875 151.308594 L 405.402344 160.011719 C 404.789062 159.558594 403.636719 158.976562 401.949219 158.261719 C 400.296875 157.550781 398.449219 157.191406 396.40625 157.191406 C 394.847656 157.191406 393.535156 157.433594 392.464844 157.921875 C 391.394531 158.375 390.859375 159.105469 390.859375 160.109375 C 390.859375 161.117188 391.445312 161.925781 392.613281 162.542969 C 393.8125 163.125 395.53125 163.644531 397.769531 164.097656 C 399.714844 164.488281 401.691406 165.101562 403.703125 165.945312 C 405.710938 166.789062 407.382812 168.039062 408.710938 169.691406 C 410.074219 171.3125 410.753906 173.484375 410.753906 176.210938 C 410.753906 178.996094 410.15625 181.300781 408.953125 183.117188 C 407.753906 184.929688 406.167969 186.34375 404.1875 187.347656 C 402.210938 188.351562 400.070312 189.050781 397.769531 189.4375 C 395.464844 189.859375 393.230469 190.070312 391.054688 190.070312 C 388.007812 190.070312 385.351562 189.796875 383.078125 189.242188 C 380.84375 188.691406 379.027344 188.058594 377.632812 187.347656 C 376.238281 186.632812 375.265625 186.066406 374.714844 185.644531 L 379.480469 175.917969 C 380.324219 176.628906 381.703125 177.441406 383.613281 178.347656 C 385.527344 179.222656 387.554688 179.664062 389.695312 179.664062 C 391.769531 179.664062 393.375 179.355469 394.507812 178.738281 C 395.644531 178.121094 396.210938 177.3125 396.210938 176.304688 C 396.210938 175.496094 395.9375 174.847656 395.382812 174.359375 C 394.832031 173.875 394.054688 173.453125 393.050781 173.097656 C 392.046875 172.738281 390.828125 172.414062 389.402344 172.125 C 388.105469 171.863281 386.726562 171.460938 385.269531 170.90625 C 383.808594 170.355469 382.429688 169.609375 381.132812 168.671875 C 379.835938 167.699219 378.785156 166.480469 377.972656 165.023438 C 377.164062 163.5625 376.757812 161.796875 376.757812 159.722656 C 376.757812 157.0625 377.617188 154.859375 379.335938 153.105469 C 381.054688 151.355469 383.273438 150.042969 385.996094 149.167969 C 388.722656 148.257812 391.625 147.804688 394.703125 147.804688 Z M 394.703125 147.804688 " fill-opacity="1" fill-rule="nonzero"/></g><path fill="#d1422e" d="M 357.203125 121.980469 L 372.039062 121.980469 L 372.039062 188.902344 L 357.203125 188.902344 Z M 357.203125 121.980469 " fill-opacity="1" fill-rule="nonzero"/><g clip-path="url(#4c3e925102)"><path fill="#d1422e" d="M 332.097656 190.070312 C 327.722656 190.070312 323.832031 189.179688 320.425781 187.394531 C 317.054688 185.578125 314.394531 183.097656 312.449219 179.953125 C 310.535156 176.777344 309.582031 173.144531 309.582031 169.058594 C 309.582031 164.972656 310.535156 161.34375 312.449219 158.164062 C 314.394531 154.953125 317.054688 152.425781 320.425781 150.578125 C 323.832031 148.730469 327.722656 147.804688 332.097656 147.804688 C 336.476562 147.804688 340.335938 148.730469 343.675781 150.578125 C 347.011719 152.425781 349.625 154.953125 351.503906 158.164062 C 353.386719 161.34375 354.324219 164.972656 354.324219 169.058594 C 354.324219 173.144531 353.386719 176.777344 351.503906 179.953125 C 349.625 183.097656 347.011719 185.578125 343.675781 187.394531 C 340.335938 189.179688 336.476562 190.070312 332.097656 190.070312 Z M 332.097656 177.910156 C 333.785156 177.910156 335.242188 177.539062 336.476562 176.792969 C 337.707031 176.046875 338.664062 174.992188 339.34375 173.632812 C 340.027344 172.269531 340.367188 170.730469 340.367188 169.011719 C 340.367188 167.261719 340.027344 165.703125 339.34375 164.34375 C 338.664062 162.980469 337.707031 161.910156 336.476562 161.132812 C 335.242188 160.355469 333.785156 159.964844 332.097656 159.964844 C 330.414062 159.964844 328.9375 160.355469 327.671875 161.132812 C 326.441406 161.910156 325.46875 162.980469 324.753906 164.34375 C 324.074219 165.703125 323.734375 167.261719 323.734375 169.011719 C 323.734375 170.730469 324.074219 172.269531 324.753906 173.632812 C 325.46875 174.992188 326.441406 176.046875 327.671875 176.792969 C 328.9375 177.539062 330.414062 177.910156 332.097656 177.910156 Z M 332.097656 177.910156 " fill-opacity="1" fill-rule="nonzero"/></g><g clip-path="url(#a58d0240f1)"><path fill="#d1422e" d="M 286.613281 190.070312 C 282.238281 190.070312 278.347656 189.179688 274.941406 187.394531 C 271.570312 185.578125 268.910156 183.097656 266.964844 179.953125 C 265.050781 176.777344 264.09375 173.144531 264.09375 169.058594 C 264.09375 164.972656 265.050781 161.34375 266.964844 158.164062 C 268.910156 154.953125 271.570312 152.425781 274.941406 150.578125 C 278.347656 148.730469 282.238281 147.804688 286.613281 147.804688 C 290.992188 147.804688 294.851562 148.730469 298.191406 150.578125 C 301.527344 152.425781 304.140625 154.953125 306.019531 158.164062 C 307.898438 161.34375 308.839844 164.972656 308.839844 169.058594 C 308.839844 173.144531 307.898438 176.777344 306.019531 179.953125 C 304.140625 183.097656 301.527344 185.578125 298.191406 187.394531 C 294.851562 189.179688 290.992188 190.070312 286.613281 190.070312 Z M 286.613281 177.910156 C 288.300781 177.910156 289.757812 177.539062 290.992188 176.792969 C 292.222656 176.046875 293.179688 174.992188 293.859375 173.632812 C 294.542969 172.269531 294.882812 170.730469 294.882812 169.011719 C 294.882812 167.261719 294.542969 165.703125 293.859375 164.34375 C 293.179688 162.980469 292.222656 161.910156 290.992188 161.132812 C 289.757812 160.355469 288.300781 159.964844 286.613281 159.964844 C 284.929688 159.964844 283.453125 160.355469 282.1875 161.132812 C 280.957031 161.910156 279.984375 162.980469 279.269531 164.34375 C 278.589844 165.703125 278.25 167.261719 278.25 169.011719 C 278.25 170.730469 278.589844 172.269531 279.269531 173.632812 C 279.984375 174.992188 280.957031 176.046875 282.1875 176.792969 C 283.453125 177.539062 284.929688 177.910156 286.613281 177.910156 Z M 286.613281 177.910156 " fill-opacity="1" fill-rule="nonzero"/></g><path fill="#d1422e" d="M 245.007812 147.804688 C 247.796875 147.804688 250.523438 148.371094 253.179688 149.507812 C 255.839844 150.644531 258.027344 152.441406 259.746094 154.90625 C 261.464844 157.339844 262.324219 160.546875 262.324219 164.535156 L 262.324219 188.902344 L 247.539062 188.902344 L 247.539062 166.96875 C 247.539062 164.113281 246.890625 161.976562 245.59375 160.546875 C 244.328125 159.089844 242.59375 158.359375 240.390625 158.359375 C 238.929688 158.359375 237.535156 158.75 236.207031 159.527344 C 234.875 160.273438 233.789062 161.34375 232.949219 162.738281 C 232.136719 164.097656 231.730469 165.671875 231.730469 167.453125 L 231.730469 188.902344 L 216.898438 188.902344 L 216.898438 121.980469 L 231.730469 121.980469 L 231.730469 154.859375 C 232.089844 153.789062 232.882812 152.71875 234.113281 151.648438 C 235.378906 150.546875 236.953125 149.636719 238.832031 148.925781 C 240.746094 148.179688 242.804688 147.804688 245.007812 147.804688 Z M 245.007812 147.804688 " fill-opacity="1" fill-rule="nonzero"/><g clip-path="url(#00a2cfa12d)"><path fill="#d1422e" d="M 202.183594 178.445312 C 204.03125 178.445312 205.554688 178.136719 206.753906 177.523438 C 207.953125 176.875 208.765625 176.355469 209.1875 175.964844 L 215.945312 185.984375 C 215.425781 186.40625 214.535156 186.957031 213.269531 187.636719 C 212.007812 188.289062 210.417969 188.855469 208.503906 189.339844 C 206.625 189.828125 204.46875 190.070312 202.035156 190.070312 C 197.464844 190.070312 193.445312 189.210938 189.972656 187.492188 C 186.503906 185.742188 183.796875 183.277344 181.851562 180.101562 C 179.9375 176.921875 178.980469 173.195312 178.980469 168.914062 C 178.980469 164.601562 179.9375 160.871094 181.851562 157.726562 C 183.796875 154.582031 186.503906 152.152344 189.972656 150.433594 C 193.445312 148.679688 197.464844 147.804688 202.035156 147.804688 C 204.433594 147.804688 206.574219 148.066406 208.457031 148.582031 C 210.367188 149.070312 211.972656 149.636719 213.269531 150.285156 C 214.566406 150.902344 215.476562 151.4375 215.996094 151.890625 L 209.089844 162.007812 C 208.859375 161.78125 208.441406 161.457031 207.824219 161.035156 C 207.238281 160.613281 206.476562 160.238281 205.539062 159.914062 C 204.597656 159.59375 203.480469 159.429688 202.183594 159.429688 C 200.59375 159.429688 199.101562 159.835938 197.707031 160.644531 C 196.34375 161.457031 195.242188 162.574219 194.398438 164 C 193.558594 165.429688 193.136719 167.066406 193.136719 168.914062 C 193.136719 170.761719 193.558594 172.414062 194.398438 173.875 C 195.242188 175.300781 196.34375 176.421875 197.707031 177.230469 C 199.101562 178.039062 200.59375 178.445312 202.183594 178.445312 Z M 202.183594 178.445312 " fill-opacity="1" fill-rule="nonzero"/></g><g clip-path="url(#14868cbddf)"><path fill="#d1422e" d="M 161.40625 147.804688 C 164.03125 147.804688 166.433594 148.03125 168.605469 148.488281 C 170.777344 148.90625 172.59375 149.394531 174.050781 149.945312 C 175.542969 150.496094 176.5 150.949219 176.921875 151.308594 L 172.105469 160.011719 C 171.492188 159.558594 170.339844 158.976562 168.652344 158.261719 C 167 157.550781 165.152344 157.191406 163.109375 157.191406 C 161.550781 157.191406 160.238281 157.433594 159.167969 157.921875 C 158.097656 158.375 157.5625 159.105469 157.5625 160.109375 C 157.5625 161.117188 158.148438 161.925781 159.316406 162.542969 C 160.515625 163.125 162.234375 163.644531 164.46875 164.097656 C 166.414062 164.488281 168.394531 165.101562 170.402344 165.945312 C 172.414062 166.789062 174.085938 168.039062 175.414062 169.691406 C 176.777344 171.3125 177.457031 173.484375 177.457031 176.210938 C 177.457031 178.996094 176.855469 181.300781 175.65625 183.117188 C 174.457031 184.929688 172.867188 186.34375 170.890625 187.347656 C 168.914062 188.351562 166.773438 189.050781 164.46875 189.4375 C 162.167969 189.859375 159.929688 190.070312 157.757812 190.070312 C 154.710938 190.070312 152.050781 189.796875 149.78125 189.242188 C 147.546875 188.691406 145.730469 188.058594 144.335938 187.347656 C 142.941406 186.632812 141.96875 186.066406 141.417969 185.644531 L 146.183594 175.917969 C 147.027344 176.628906 148.402344 177.441406 150.316406 178.347656 C 152.230469 179.222656 154.257812 179.664062 156.398438 179.664062 C 158.472656 179.664062 160.078125 179.355469 161.210938 178.738281 C 162.347656 178.121094 162.914062 177.3125 162.914062 176.304688 C 162.914062 175.496094 162.636719 174.847656 162.085938 174.359375 C 161.535156 173.875 160.757812 173.453125 159.753906 173.097656 C 158.746094 172.738281 157.53125 172.414062 156.105469 172.125 C 154.808594 171.863281 153.429688 171.460938 151.972656 170.90625 C 150.511719 170.355469 149.132812 169.609375 147.835938 168.671875 C 146.539062 167.699219 145.484375 166.480469 144.675781 165.023438 C 143.863281 163.5625 143.460938 161.796875 143.460938 159.722656 C 143.460938 157.0625 144.320312 154.859375 146.039062 153.105469 C 147.753906 151.355469 149.976562 150.042969 152.699219 149.167969 C 155.425781 148.257812 158.324219 147.804688 161.40625 147.804688 Z M 161.40625 147.804688 " fill-opacity="1" fill-rule="nonzero"/></g><path fill="#d1422e" d="M 356.003906 114.976562 L 350.089844 114.976562 L 350.089844 99.003906 L 356.003906 99.003906 L 356.003906 101.472656 L 355.90625 101.472656 C 356.007812 101.175781 356.261719 100.800781 356.664062 100.347656 C 357.066406 99.878906 357.632812 99.464844 358.359375 99.101562 C 359.082031 98.726562 359.972656 98.535156 361.023438 98.535156 C 361.761719 98.535156 362.441406 98.652344 363.066406 98.886719 C 363.6875 99.109375 364.140625 99.320312 364.425781 99.527344 L 362.132812 104.335938 C 361.949219 104.113281 361.625 103.886719 361.160156 103.652344 C 360.703125 103.40625 360.132812 103.285156 359.445312 103.285156 C 358.65625 103.285156 358 103.484375 357.480469 103.886719 C 356.976562 104.289062 356.601562 104.773438 356.355469 105.347656 C 356.121094 105.917969 356.003906 106.453125 356.003906 106.960938 Z M 356.003906 114.976562 " fill-opacity="1" fill-rule="nonzero"/><path fill="#d1422e" d="M 340.535156 115.441406 C 338.78125 115.441406 337.226562 115.085938 335.863281 114.371094 C 334.515625 113.648438 333.453125 112.65625 332.671875 111.394531 C 331.90625 110.125 331.527344 108.671875 331.527344 107.039062 C 331.527344 105.40625 331.90625 103.953125 332.671875 102.679688 C 333.453125 101.398438 334.515625 100.386719 335.863281 99.644531 C 337.226562 98.90625 338.78125 98.535156 340.535156 98.535156 C 342.285156 98.535156 343.828125 98.90625 345.164062 99.644531 C 346.5 100.386719 347.542969 101.398438 348.296875 102.679688 C 349.046875 103.953125 349.425781 105.40625 349.425781 107.039062 C 349.425781 108.671875 349.046875 110.125 348.296875 111.394531 C 347.542969 112.65625 346.5 113.648438 345.164062 114.371094 C 343.828125 115.085938 342.285156 115.441406 340.535156 115.441406 Z M 340.535156 110.578125 C 341.207031 110.578125 341.792969 110.429688 342.285156 110.132812 C 342.777344 109.832031 343.160156 109.410156 343.433594 108.867188 C 343.703125 108.324219 343.839844 107.707031 343.839844 107.019531 C 343.839844 106.320312 343.703125 105.695312 343.433594 105.152344 C 343.160156 104.605469 342.777344 104.179688 342.285156 103.867188 C 341.792969 103.554688 341.207031 103.402344 340.535156 103.402344 C 339.859375 103.402344 339.269531 103.554688 338.761719 103.867188 C 338.269531 104.179688 337.878906 104.605469 337.59375 105.152344 C 337.324219 105.695312 337.1875 106.320312 337.1875 107.019531 C 337.1875 107.707031 337.324219 108.324219 337.59375 108.867188 C 337.878906 109.410156 338.269531 109.832031 338.761719 110.132812 C 339.269531 110.429688 339.859375 110.578125 340.535156 110.578125 Z M 340.535156 110.578125 " fill-opacity="1" fill-rule="nonzero"/><path fill="#d1422e" d="M 319.363281 99.003906 L 322.011719 99.003906 L 322.011719 94.78125 C 322.011719 93.226562 322.339844 91.929688 323.003906 90.890625 C 323.664062 89.851562 324.519531 89.070312 325.570312 88.535156 C 326.621094 88.003906 327.710938 87.738281 328.839844 87.738281 C 330.238281 87.738281 331.304688 87.925781 332.03125 88.304688 C 332.769531 88.679688 333.234375 88.957031 333.429688 89.140625 L 331.171875 93.480469 C 331.109375 93.375 330.945312 93.226562 330.6875 93.03125 C 330.429688 92.835938 330.085938 92.738281 329.65625 92.738281 C 329.382812 92.738281 329.113281 92.8125 328.839844 92.953125 C 328.566406 93.097656 328.339844 93.347656 328.160156 93.710938 C 327.988281 94.074219 327.90625 94.605469 327.90625 95.308594 L 327.90625 99.003906 L 331.855469 99.003906 L 331.855469 103.867188 L 327.90625 103.867188 L 327.90625 114.976562 L 322.011719 114.976562 L 322.011719 103.867188 L 319.363281 103.867188 Z M 319.363281 99.003906 " fill-opacity="1" fill-rule="nonzero"/><path fill="#d1422e" d="M 282.898438 98.148438 C 282.996094 99.574219 283.449219 100.839844 284.261719 101.941406 C 285.070312 103.042969 286.1875 103.917969 287.617188 104.566406 C 289.074219 105.183594 290.792969 105.492188 292.769531 105.492188 C 294.652344 105.492188 296.335938 105.296875 297.828125 104.90625 C 299.351562 104.519531 300.667969 104.03125 301.769531 103.449219 C 302.902344 102.867188 303.777344 102.265625 304.394531 101.648438 L 310.132812 110.792969 C 309.324219 111.667969 308.171875 112.527344 306.679688 113.371094 C 305.222656 114.179688 303.292969 114.847656 300.894531 115.363281 C 298.492188 115.882812 295.460938 116.144531 291.796875 116.144531 C 287.386719 116.144531 283.464844 115.316406 280.027344 113.664062 C 276.589844 112.007812 273.882812 109.578125 271.90625 106.367188 C 269.929688 103.15625 268.941406 99.234375 268.941406 94.597656 C 268.941406 90.707031 269.78125 87.203125 271.46875 84.089844 C 273.1875 80.945312 275.667969 78.464844 278.910156 76.648438 C 282.152344 74.800781 286.058594 73.878906 290.632812 73.878906 C 294.976562 73.878906 298.738281 74.671875 301.914062 76.261719 C 305.125 77.851562 307.589844 80.21875 309.308594 83.363281 C 311.058594 86.476562 311.933594 90.367188 311.933594 95.035156 C 311.933594 95.292969 311.917969 95.8125 311.886719 96.589844 C 311.886719 97.371094 311.851562 97.886719 311.789062 98.148438 Z M 298.023438 90.414062 C 297.992188 89.375 297.714844 88.355469 297.199219 87.351562 C 296.679688 86.3125 295.898438 85.46875 294.863281 84.820312 C 293.824219 84.140625 292.496094 83.800781 290.875 83.800781 C 289.253906 83.800781 287.875 84.125 286.742188 84.773438 C 285.636719 85.390625 284.796875 86.199219 284.210938 87.203125 C 283.628906 88.210938 283.304688 89.28125 283.238281 90.414062 Z M 298.023438 90.414062 " fill-opacity="1" fill-rule="nonzero"/><path fill="#d1422e" d="M 238.679688 116.144531 C 234.820312 116.144531 231.464844 115.203125 228.609375 113.320312 C 225.757812 111.410156 223.535156 108.863281 221.949219 105.6875 C 220.390625 102.476562 219.613281 98.925781 219.613281 95.035156 C 219.613281 91.144531 220.390625 87.609375 221.949219 84.433594 C 223.535156 81.222656 225.757812 78.660156 228.609375 76.746094 C 231.464844 74.835938 234.820312 73.878906 238.679688 73.878906 C 241.238281 73.878906 243.507812 74.285156 245.488281 75.09375 C 247.464844 75.871094 249.070312 76.8125 250.300781 77.914062 C 251.535156 78.984375 252.28125 79.972656 252.539062 80.882812 L 252.539062 48.050781 L 267.324219 48.050781 L 267.324219 114.976562 L 252.683594 114.976562 L 252.683594 108.507812 C 252.070312 109.707031 251.066406 110.90625 249.667969 112.105469 C 248.277344 113.273438 246.640625 114.230469 244.757812 114.976562 C 242.878906 115.753906 240.851562 116.144531 238.679688 116.144531 Z M 243.199219 104.519531 C 244.984375 104.519531 246.574219 104.113281 247.96875 103.304688 C 249.394531 102.492188 250.511719 101.375 251.324219 99.945312 C 252.132812 98.488281 252.539062 96.851562 252.539062 95.035156 C 252.539062 93.21875 252.132812 91.597656 251.324219 90.171875 C 250.511719 88.710938 249.394531 87.578125 247.96875 86.765625 C 246.574219 85.921875 244.984375 85.503906 243.199219 85.503906 C 241.484375 85.503906 239.925781 85.921875 238.53125 86.765625 C 237.171875 87.578125 236.085938 88.710938 235.273438 90.171875 C 234.496094 91.597656 234.105469 93.21875 234.105469 95.035156 C 234.105469 96.851562 234.496094 98.488281 235.273438 99.945312 C 236.085938 101.375 237.171875 102.492188 238.53125 103.304688 C 239.925781 104.113281 241.484375 104.519531 243.199219 104.519531 Z M 243.199219 104.519531 " fill-opacity="1" fill-rule="nonzero"/><path fill="#d1422e" d="M 196.402344 116.144531 C 192.027344 116.144531 188.136719 115.25 184.730469 113.46875 C 181.359375 111.652344 178.699219 109.171875 176.753906 106.027344 C 174.839844 102.847656 173.882812 99.21875 173.882812 95.132812 C 173.882812 91.046875 174.839844 87.414062 176.753906 84.238281 C 178.699219 81.027344 181.359375 78.5 184.730469 76.648438 C 188.136719 74.800781 192.027344 73.878906 196.402344 73.878906 C 200.78125 73.878906 204.640625 74.800781 207.980469 76.648438 C 211.320312 78.5 213.929688 81.027344 215.808594 84.238281 C 217.691406 87.414062 218.628906 91.046875 218.628906 95.132812 C 218.628906 99.21875 217.691406 102.847656 215.808594 106.027344 C 213.929688 109.171875 211.320312 111.652344 207.980469 113.46875 C 204.640625 115.25 200.78125 116.144531 196.402344 116.144531 Z M 196.402344 103.984375 C 198.089844 103.984375 199.546875 103.609375 200.78125 102.867188 C 202.011719 102.121094 202.96875 101.066406 203.648438 99.703125 C 204.332031 98.34375 204.671875 96.800781 204.671875 95.082031 C 204.671875 93.332031 204.332031 91.777344 203.648438 90.414062 C 202.96875 89.050781 202.011719 87.984375 200.78125 87.203125 C 199.546875 86.425781 198.089844 86.039062 196.402344 86.039062 C 194.71875 86.039062 193.242188 86.425781 191.976562 87.203125 C 190.746094 87.984375 189.773438 89.050781 189.058594 90.414062 C 188.378906 91.777344 188.039062 93.332031 188.039062 95.082031 C 188.039062 96.800781 188.378906 98.34375 189.058594 99.703125 C 189.773438 101.066406 190.746094 102.121094 191.976562 102.867188 C 193.242188 103.609375 194.71875 103.984375 196.402344 103.984375 Z M 196.402344 103.984375 " fill-opacity="1" fill-rule="nonzero"/><path fill="#d1422e" d="M 165.152344 104.519531 C 167 104.519531 168.523438 104.210938 169.722656 103.59375 C 170.921875 102.945312 171.734375 102.425781 172.15625 102.039062 L 178.914062 112.058594 C 178.398438 112.480469 177.503906 113.03125 176.242188 113.710938 C 174.976562 114.359375 173.386719 114.925781 171.472656 115.414062 C 169.59375 115.898438 167.4375 116.144531 165.003906 116.144531 C 160.433594 116.144531 156.414062 115.285156 152.945312 113.566406 C 149.472656 111.816406 146.765625 109.351562 144.820312 106.171875 C 142.910156 102.996094 141.953125 99.265625 141.953125 94.984375 C 141.953125 90.675781 142.910156 86.945312 144.820312 83.800781 C 146.765625 80.65625 149.472656 78.222656 152.945312 76.503906 C 156.414062 74.753906 160.433594 73.878906 165.003906 73.878906 C 167.40625 73.878906 169.542969 74.136719 171.425781 74.65625 C 173.339844 75.144531 174.945312 75.710938 176.242188 76.359375 C 177.539062 76.972656 178.445312 77.507812 178.964844 77.964844 L 172.058594 88.078125 C 171.832031 87.851562 171.410156 87.527344 170.792969 87.105469 C 170.210938 86.6875 169.449219 86.3125 168.507812 85.988281 C 167.566406 85.664062 166.449219 85.503906 165.152344 85.503906 C 163.5625 85.503906 162.070312 85.90625 160.675781 86.71875 C 159.316406 87.527344 158.210938 88.648438 157.371094 90.074219 C 156.527344 91.5 156.105469 93.136719 156.105469 94.984375 C 156.105469 96.835938 156.527344 98.488281 157.371094 99.945312 C 158.210938 101.375 159.316406 102.492188 160.675781 103.304688 C 162.070312 104.113281 163.5625 104.519531 165.152344 104.519531 Z M 165.152344 104.519531 " fill-opacity="1" fill-rule="nonzero"/><path fill="#d1422e" d="M 91.492188 175.953125 C 91.492188 177.550781 90.199219 178.847656 88.597656 178.847656 L 73.714844 178.847656 C 72.113281 178.847656 70.820312 177.550781 70.820312 175.953125 C 70.820312 174.355469 72.113281 173.058594 73.714844 173.058594 L 88.597656 173.058594 C 90.199219 173.058594 91.492188 174.355469 91.492188 175.953125 Z M 91.492188 175.953125 " fill-opacity="1" fill-rule="evenodd"/><g clip-path="url(#0d872c4480)"><path fill="#d1422e" d="M 87.496094 166.027344 L 48.351562 166.027344 C 40.433594 166.027344 34.015625 172.445312 34.015625 180.363281 C 34.015625 182.496094 35.746094 184.222656 37.875 184.222656 L 44.355469 184.222656 L 44.355469 174.296875 C 44.355469 172.699219 45.652344 171.402344 47.25 171.402344 C 48.847656 171.402344 50.144531 172.699219 50.144531 174.296875 L 50.144531 184.222656 L 54.277344 184.222656 L 54.277344 174.296875 C 54.277344 172.699219 55.574219 171.402344 57.171875 171.402344 C 58.773438 171.402344 60.066406 172.699219 60.066406 174.296875 L 60.066406 184.222656 L 97.972656 184.222656 C 100.101562 184.222656 101.832031 182.496094 101.832031 180.363281 C 101.832031 172.445312 95.414062 166.027344 87.496094 166.027344 Z M 48.351562 159.414062 C 36.78125 159.414062 27.402344 168.792969 27.402344 180.363281 C 27.402344 186.148438 32.089844 190.839844 37.875 190.839844 L 97.972656 190.839844 C 103.757812 190.839844 108.445312 186.148438 108.445312 180.363281 C 108.445312 168.792969 99.066406 159.414062 87.496094 159.414062 Z M 48.351562 159.414062 " fill-opacity="1" fill-rule="evenodd"/></g><path fill="#d1422e" d="M 94.386719 139.566406 C 94.386719 140.933594 93.277344 142.046875 91.90625 142.046875 L 77.019531 142.046875 C 75.652344 142.046875 74.539062 140.933594 74.539062 139.566406 C 74.539062 138.195312 75.652344 137.082031 77.019531 137.082031 L 91.90625 137.082031 C 93.277344 137.082031 94.386719 138.195312 94.386719 139.566406 Z M 94.386719 139.566406 " fill-opacity="1" fill-rule="evenodd"/><path fill="#d1422e" d="M 65.441406 139.566406 C 65.441406 140.476562 66.183594 141.21875 67.097656 141.21875 C 68.011719 141.21875 68.75 140.476562 68.75 139.566406 C 68.75 138.652344 68.011719 137.910156 67.097656 137.910156 C 66.183594 137.910156 65.441406 138.652344 65.441406 139.566406 Z M 62.136719 139.566406 C 62.136719 142.304688 64.355469 144.527344 67.097656 144.527344 C 69.835938 144.527344 72.058594 142.304688 72.058594 139.566406 C 72.058594 136.824219 69.835938 134.601562 67.097656 134.601562 C 64.355469 134.601562 62.136719 136.824219 62.136719 139.566406 Z M 62.136719 139.566406 " fill-opacity="1" fill-rule="evenodd"/><path fill="#d1422e" d="M 59.65625 139.566406 C 59.65625 140.933594 58.542969 142.046875 57.171875 142.046875 L 42.289062 142.046875 C 40.917969 142.046875 39.804688 140.933594 39.804688 139.566406 C 39.804688 138.195312 40.917969 137.082031 42.289062 137.082031 L 57.171875 137.082031 C 58.542969 137.082031 59.65625 138.195312 59.65625 139.566406 Z M 59.65625 139.566406 " fill-opacity="1" fill-rule="evenodd"/><path fill="#d1422e" d="M 81.984375 110.621094 C 81.984375 114.730469 79.761719 118.0625 77.019531 118.0625 C 74.28125 118.0625 72.058594 114.730469 72.058594 110.621094 C 72.058594 106.507812 74.28125 103.175781 77.019531 103.175781 C 79.761719 103.175781 81.984375 106.507812 81.984375 110.621094 Z M 81.984375 110.621094 " fill-opacity="1" fill-rule="nonzero"/><path fill="#d1422e" d="M 62.136719 110.621094 C 62.136719 114.730469 59.914062 118.0625 57.171875 118.0625 C 54.433594 118.0625 52.210938 114.730469 52.210938 110.621094 C 52.210938 106.507812 54.433594 103.175781 57.171875 103.175781 C 59.914062 103.175781 62.136719 106.507812 62.136719 110.621094 Z M 62.136719 110.621094 " fill-opacity="1" fill-rule="nonzero"/><g clip-path="url(#309166b89a)"><path fill="#d1422e" d="M 20.785156 75.886719 C 22.15625 75.886719 23.265625 74.777344 23.265625 73.40625 C 23.265625 72.035156 22.15625 70.925781 20.785156 70.925781 C 19.414062 70.925781 18.304688 72.035156 18.304688 73.40625 C 18.304688 74.777344 19.414062 75.886719 20.785156 75.886719 Z M 29.054688 73.40625 C 29.054688 77.109375 26.621094 80.242188 23.265625 81.296875 L 23.265625 93.484375 L 23.347656 93.5 C 23.855469 91.4375 24.507812 89.71875 25.414062 88.175781 C 27.75 84.179688 31.230469 80.980469 35.40625 78.980469 C 38.445312 77.527344 42.007812 77.003906 47.34375 76.816406 C 47.144531 78.164062 47.253906 79.609375 47.738281 81.105469 C 47.976562 81.832031 48.246094 82.601562 48.546875 83.398438 C 47.074219 83.4375 45.765625 83.5 44.582031 83.59375 C 41.382812 83.84375 39.601562 84.308594 38.261719 84.949219 C 35.28125 86.375 32.792969 88.664062 31.125 91.515625 C 30.375 92.796875 29.765625 94.535156 29.246094 97.703125 C 28.71875 100.949219 28.363281 105.140625 27.855469 111.234375 L 27.414062 116.527344 C 26.824219 123.605469 26.421875 128.503906 26.425781 132.3125 C 26.429688 136.050781 26.839844 138.097656 27.496094 139.589844 C 28.972656 142.960938 31.53125 145.742188 34.769531 147.496094 C 36.203125 148.269531 38.203125 148.847656 41.929688 149.164062 C 45.726562 149.484375 50.640625 149.488281 57.742188 149.488281 L 76.453125 149.488281 C 83.554688 149.488281 88.46875 149.484375 92.265625 149.164062 C 95.988281 148.847656 97.992188 148.269531 99.425781 147.496094 C 102.664062 145.742188 105.222656 142.960938 106.699219 139.589844 C 107.355469 138.097656 107.765625 136.050781 107.769531 132.3125 C 107.773438 128.503906 107.371094 123.605469 106.78125 116.527344 L 106.339844 111.234375 C 105.832031 105.140625 105.476562 100.949219 104.945312 97.703125 C 104.429688 94.535156 103.820312 92.796875 103.070312 91.515625 C 101.402344 88.664062 98.914062 86.375 95.933594 84.949219 C 94.59375 84.308594 92.808594 83.84375 89.613281 83.59375 C 88.425781 83.5 87.121094 83.4375 85.648438 83.398438 C 84.515625 86.390625 82.898438 89.769531 80.636719 92.671875 C 77.753906 96.371094 73.320312 99.867188 67.097656 99.867188 C 61.203125 99.867188 56.917969 96.734375 54.03125 93.257812 C 50.570312 93.28125 49.117188 93.375 47.945312 93.773438 C 45.289062 94.664062 43.136719 96.640625 42.015625 99.207031 C 41.417969 100.574219 41.21875 102.382812 40.765625 107.605469 C 40.507812 110.546875 40.332031 112.605469 40.289062 114.222656 C 40.25 115.816406 40.355469 116.75 40.554688 117.457031 C 41.410156 120.480469 43.648438 122.917969 46.585938 124.035156 C 47.273438 124.292969 48.191406 124.480469 49.785156 124.578125 C 51.398438 124.675781 53.464844 124.679688 56.417969 124.679688 L 77.777344 124.679688 C 80.730469 124.679688 82.796875 124.675781 84.410156 124.578125 C 86.003906 124.480469 86.921875 124.292969 87.609375 124.035156 C 90.546875 122.917969 92.785156 120.480469 93.640625 117.457031 C 93.839844 116.75 93.945312 115.816406 93.902344 114.222656 C 93.863281 112.605469 93.6875 110.546875 93.429688 107.605469 C 92.976562 102.382812 92.777344 100.574219 92.179688 99.207031 C 91.058594 96.640625 88.90625 94.664062 86.25 93.773438 C 85.078125 93.375 83.625 93.28125 80.164062 93.257812 C 80.328125 93.0625 80.484375 92.867188 80.636719 92.671875 C 82.082031 90.820312 83.261719 88.773438 84.222656 86.753906 C 85.773438 86.867188 87.117188 87.082031 88.359375 87.5 C 92.785156 88.992188 96.375 92.28125 98.242188 96.5625 C 99.332031 99.054688 99.589844 102.050781 99.96875 106.417969 L 100.03125 107.140625 C 100.273438 109.949219 100.472656 112.210938 100.519531 114.058594 C 100.566406 115.949219 100.464844 117.632812 100.003906 119.261719 C 98.578125 124.296875 94.851562 128.363281 89.957031 130.21875 C 88.378906 130.820312 86.707031 131.066406 84.820312 131.179688 C 82.976562 131.292969 80.707031 131.292969 77.882812 131.292969 L 56.3125 131.292969 C 53.488281 131.292969 51.21875 131.292969 49.375 131.179688 C 47.488281 131.066406 45.816406 130.820312 44.238281 130.21875 C 39.34375 128.363281 35.617188 124.296875 34.1875 119.261719 C 33.730469 117.632812 33.628906 115.949219 33.675781 114.058594 C 33.722656 112.210938 33.917969 109.949219 34.164062 107.140625 L 34.226562 106.417969 C 34.605469 102.050781 34.863281 99.054688 35.949219 96.5625 C 37.820312 92.28125 41.410156 88.992188 45.835938 87.5 C 47.078125 87.082031 48.421875 86.867188 49.972656 86.753906 C 49.027344 84.769531 48.296875 82.8125 47.738281 81.105469 C 45.503906 74.246094 51.273438 68.441406 57.765625 68.441406 L 76.429688 68.441406 C 81.507812 68.441406 86.140625 71.992188 86.851562 76.816406 C 92.1875 77.003906 95.75 77.527344 98.789062 78.980469 C 102.964844 80.980469 106.441406 84.179688 108.78125 88.175781 C 109.683594 89.71875 110.339844 91.4375 110.847656 93.5 L 110.929688 93.484375 L 110.929688 81.296875 C 107.574219 80.242188 105.140625 77.109375 105.140625 73.40625 C 105.140625 68.839844 108.839844 65.136719 113.410156 65.136719 C 117.976562 65.136719 121.679688 68.839844 121.679688 73.40625 C 121.679688 77.109375 119.246094 80.242188 115.890625 81.296875 L 115.890625 93.484375 C 122.011719 94.648438 126.640625 100.023438 126.640625 106.484375 L 126.640625 119.71875 C 126.640625 126.699219 121.234375 132.417969 114.378906 132.914062 C 114.335938 136.769531 113.878906 139.6875 112.757812 142.242188 C 110.691406 146.964844 107.105469 150.859375 102.574219 153.3125 C 97.417969 156.105469 90.429688 156.105469 76.453125 156.105469 L 57.742188 156.105469 C 43.765625 156.105469 36.777344 156.105469 31.621094 153.3125 C 27.085938 150.859375 23.503906 146.964844 21.433594 142.242188 C 20.3125 139.6875 19.859375 136.769531 19.8125 132.914062 C 12.960938 132.417969 7.554688 126.699219 7.554688 119.71875 L 7.554688 106.484375 C 7.554688 100.023438 12.183594 94.648438 18.304688 93.484375 L 18.304688 81.296875 C 14.949219 80.242188 12.515625 77.109375 12.515625 73.40625 C 12.515625 68.839844 16.21875 65.136719 20.785156 65.136719 C 25.351562 65.136719 29.054688 68.839844 29.054688 73.40625 Z M 58.773438 88.605469 C 60.945312 91.386719 63.652344 93.253906 67.097656 93.253906 C 70.542969 93.253906 73.25 91.386719 75.421875 88.605469 C 77.605469 85.800781 79.144531 82.183594 80.164062 79.054688 C 80.511719 77.984375 80.28125 77.199219 79.6875 76.503906 C 78.980469 75.675781 77.753906 75.058594 76.429688 75.058594 L 57.765625 75.058594 C 56.441406 75.058594 55.214844 75.675781 54.507812 76.503906 C 53.914062 77.199219 53.683594 77.984375 54.03125 79.054688 C 55.050781 82.183594 56.589844 85.800781 58.773438 88.605469 Z M 20.820312 115.980469 L 21.261719 110.6875 C 21.613281 106.453125 21.90625 102.96875 22.25 100.03125 C 21.78125 99.925781 21.289062 99.867188 20.785156 99.867188 C 17.132812 99.867188 14.167969 102.832031 14.167969 106.484375 L 14.167969 119.71875 C 14.167969 123.113281 16.730469 125.914062 20.027344 126.289062 C 20.207031 123.332031 20.492188 119.9375 20.820312 115.980469 Z M 114.167969 126.289062 C 117.464844 125.914062 120.023438 123.113281 120.023438 119.71875 L 120.023438 106.484375 C 120.023438 102.832031 117.0625 99.867188 113.410156 99.867188 C 112.90625 99.867188 112.414062 99.925781 111.945312 100.03125 C 112.289062 102.96875 112.578125 106.453125 112.933594 110.6875 L 113.371094 115.980469 C 113.703125 119.9375 113.984375 123.332031 114.167969 126.289062 Z M 113.410156 75.886719 C 114.777344 75.886719 115.890625 74.777344 115.890625 73.40625 C 115.890625 72.035156 114.777344 70.925781 113.410156 70.925781 C 112.039062 70.925781 110.929688 72.035156 110.929688 73.40625 C 110.929688 74.777344 112.039062 75.886719 113.410156 75.886719 Z M 113.410156 75.886719 " fill-opacity="1" fill-rule="evenodd"/></g><g fill="#1a0f41" fill-opacity="1"><g transform="translate(47.713578, 238.368552)"><g><path d="M 1.890625 0 L 1.890625 -21.78125 L 10.484375 -21.78125 C 12.140625 -21.78125 13.546875 -21.46875 14.703125 -20.84375 C 15.867188 -20.21875 16.757812 -19.347656 17.375 -18.234375 C 17.988281 -17.128906 18.296875 -15.851562 18.296875 -14.40625 C 18.296875 -12.957031 17.984375 -11.679688 17.359375 -10.578125 C 16.734375 -9.472656 15.828125 -8.609375 14.640625 -7.984375 C 13.460938 -7.367188 12.039062 -7.0625 10.375 -7.0625 L 6.5 -7.0625 L 6.5 0 Z M 6.5 -10.75 L 9.625 -10.75 C 10.945312 -10.75 11.929688 -11.085938 12.578125 -11.765625 C 13.222656 -12.441406 13.546875 -13.320312 13.546875 -14.40625 C 13.546875 -15.488281 13.222656 -16.359375 12.578125 -17.015625 C 11.929688 -17.679688 10.941406 -18.015625 9.609375 -18.015625 L 6.5 -18.015625 Z M 6.5 -10.75 "/></g></g></g><g fill="#1a0f41" fill-opacity="1"><g transform="translate(67.110637, 238.368552)"><g><path d="M 4.453125 6.359375 C 3.804688 6.359375 3.253906 6.300781 2.796875 6.1875 C 2.335938 6.082031 1.976562 5.972656 1.71875 5.859375 L 2.75 2.34375 C 3.550781 2.59375 4.222656 2.660156 4.765625 2.546875 C 5.316406 2.429688 5.753906 2 6.078125 1.25 L 6.375 0.46875 L 0.515625 -16.34375 L 5.28125 -16.34375 L 8.65625 -4.34375 L 8.828125 -4.34375 L 12.25 -16.34375 L 17.046875 -16.34375 L 10.65625 1.875 C 10.195312 3.175781 9.460938 4.25 8.453125 5.09375 C 7.441406 5.9375 6.109375 6.359375 4.453125 6.359375 Z M 4.453125 6.359375 "/></g></g></g><g fill="#1a0f41" fill-opacity="1"><g transform="translate(84.657314, 238.368552)"><g><path d="M 10.5 -16.34375 L 10.5 -12.9375 L 7.421875 -12.9375 L 7.421875 -5.015625 C 7.421875 -4.390625 7.5625 -3.96875 7.84375 -3.75 C 8.132812 -3.53125 8.503906 -3.421875 8.953125 -3.421875 C 9.171875 -3.421875 9.382812 -3.441406 9.59375 -3.484375 C 9.800781 -3.523438 9.960938 -3.554688 10.078125 -3.578125 L 10.796875 -0.203125 C 10.566406 -0.128906 10.242188 -0.046875 9.828125 0.046875 C 9.421875 0.140625 8.925781 0.195312 8.34375 0.21875 C 6.695312 0.289062 5.375 -0.0625 4.375 -0.84375 C 3.375 -1.625 2.878906 -2.816406 2.890625 -4.421875 L 2.890625 -12.9375 L 0.65625 -12.9375 L 0.65625 -16.34375 L 2.890625 -16.34375 L 2.890625 -20.25 L 7.421875 -20.25 L 7.421875 -16.34375 Z M 10.5 -16.34375 "/></g></g></g><g fill="#1a0f41" fill-opacity="1"><g transform="translate(96.291291, 238.368552)"><g><path d="M 6.34375 -9.453125 L 6.34375 0 L 1.8125 0 L 1.8125 -21.78125 L 6.21875 -21.78125 L 6.21875 -13.453125 L 6.40625 -13.453125 C 6.78125 -14.421875 7.375 -15.175781 8.1875 -15.71875 C 9.007812 -16.269531 10.039062 -16.546875 11.28125 -16.546875 C 12.988281 -16.546875 14.359375 -16 15.390625 -14.90625 C 16.421875 -13.820312 16.9375 -12.320312 16.9375 -10.40625 L 16.9375 0 L 12.40625 0 L 12.40625 -9.59375 C 12.40625 -10.601562 12.148438 -11.382812 11.640625 -11.9375 C 11.128906 -12.5 10.410156 -12.78125 9.484375 -12.78125 C 8.566406 -12.78125 7.8125 -12.488281 7.21875 -11.90625 C 6.632812 -11.320312 6.34375 -10.503906 6.34375 -9.453125 Z M 6.34375 -9.453125 "/></g></g></g><g fill="#1a0f41" fill-opacity="1"><g transform="translate(114.98648, 238.368552)"><g><path d="M 9.1875 0.3125 C 7.539062 0.3125 6.113281 -0.0351562 4.90625 -0.734375 C 3.707031 -1.441406 2.78125 -2.425781 2.125 -3.6875 C 1.476562 -4.957031 1.15625 -6.429688 1.15625 -8.109375 C 1.15625 -9.796875 1.476562 -11.269531 2.125 -12.53125 C 2.78125 -13.800781 3.707031 -14.785156 4.90625 -15.484375 C 6.113281 -16.191406 7.539062 -16.546875 9.1875 -16.546875 C 10.84375 -16.546875 12.269531 -16.191406 13.46875 -15.484375 C 14.675781 -14.785156 15.601562 -13.800781 16.25 -12.53125 C 16.90625 -11.269531 17.234375 -9.796875 17.234375 -8.109375 C 17.234375 -6.429688 16.90625 -4.957031 16.25 -3.6875 C 15.601562 -2.425781 14.675781 -1.441406 13.46875 -0.734375 C 12.269531 -0.0351562 10.84375 0.3125 9.1875 0.3125 Z M 9.21875 -3.1875 C 10.332031 -3.1875 11.175781 -3.65625 11.75 -4.59375 C 12.332031 -5.53125 12.625 -6.710938 12.625 -8.140625 C 12.625 -9.566406 12.332031 -10.75 11.75 -11.6875 C 11.175781 -12.625 10.332031 -13.09375 9.21875 -13.09375 C 8.070312 -13.09375 7.207031 -12.625 6.625 -11.6875 C 6.039062 -10.75 5.75 -9.566406 5.75 -8.140625 C 5.75 -6.710938 6.039062 -5.53125 6.625 -4.59375 C 7.207031 -3.65625 8.070312 -3.1875 9.21875 -3.1875 Z M 9.21875 -3.1875 "/></g></g></g><g fill="#1a0f41" fill-opacity="1"><g transform="translate(133.362641, 238.368552)"><g><path d="M 6.34375 -9.453125 L 6.34375 0 L 1.8125 0 L 1.8125 -16.34375 L 6.125 -16.34375 L 6.125 -13.453125 L 6.3125 -13.453125 C 6.6875 -14.398438 7.296875 -15.148438 8.140625 -15.703125 C 8.984375 -16.265625 10.015625 -16.546875 11.234375 -16.546875 C 12.929688 -16.546875 14.296875 -16 15.328125 -14.90625 C 16.359375 -13.8125 16.875 -12.3125 16.875 -10.40625 L 16.875 0 L 12.34375 0 L 12.34375 -9.59375 C 12.34375 -10.59375 12.082031 -11.375 11.5625 -11.9375 C 11.050781 -12.5 10.34375 -12.78125 9.4375 -12.78125 C 8.519531 -12.78125 7.773438 -12.488281 7.203125 -11.90625 C 6.628906 -11.320312 6.34375 -10.503906 6.34375 -9.453125 Z M 6.34375 -9.453125 "/></g></g></g><g fill="#1a0f41" fill-opacity="1"><g transform="translate(151.983394, 238.368552)"><g/></g></g><g fill="#1a0f41" fill-opacity="1"><g transform="translate(158.927628, 238.368552)"><g><path d="M 1.8125 0 L 1.8125 -16.34375 L 6.34375 -16.34375 L 6.34375 0 Z M 4.078125 -18.4375 C 3.410156 -18.4375 2.835938 -18.660156 2.359375 -19.109375 C 1.878906 -19.566406 1.640625 -20.109375 1.640625 -20.734375 C 1.640625 -21.367188 1.878906 -21.910156 2.359375 -22.359375 C 2.835938 -22.804688 3.410156 -23.03125 4.078125 -23.03125 C 4.753906 -23.03125 5.332031 -22.804688 5.8125 -22.359375 C 6.289062 -21.910156 6.53125 -21.367188 6.53125 -20.734375 C 6.53125 -20.109375 6.289062 -19.566406 5.8125 -19.109375 C 5.332031 -18.660156 4.753906 -18.4375 4.078125 -18.4375 Z M 4.078125 -18.4375 "/></g></g></g><g fill="#1a0f41" fill-opacity="1"><g transform="translate(167.07354, 238.368552)"><g><path d="M 6.34375 -9.453125 L 6.34375 0 L 1.8125 0 L 1.8125 -16.34375 L 6.125 -16.34375 L 6.125 -13.453125 L 6.3125 -13.453125 C 6.6875 -14.398438 7.296875 -15.148438 8.140625 -15.703125 C 8.984375 -16.265625 10.015625 -16.546875 11.234375 -16.546875 C 12.929688 -16.546875 14.296875 -16 15.328125 -14.90625 C 16.359375 -13.8125 16.875 -12.3125 16.875 -10.40625 L 16.875 0 L 12.34375 0 L 12.34375 -9.59375 C 12.34375 -10.59375 12.082031 -11.375 11.5625 -11.9375 C 11.050781 -12.5 10.34375 -12.78125 9.4375 -12.78125 C 8.519531 -12.78125 7.773438 -12.488281 7.203125 -11.90625 C 6.628906 -11.320312 6.34375 -10.503906 6.34375 -9.453125 Z M 6.34375 -9.453125 "/></g></g></g><g fill="#1a0f41" fill-opacity="1"><g transform="translate(185.694293, 238.368552)"><g/></g></g><g fill="#1a0f41" fill-opacity="1"><g transform="translate(192.638528, 238.368552)"><g><path d="M 10.5 -16.34375 L 10.5 -12.9375 L 7.421875 -12.9375 L 7.421875 -5.015625 C 7.421875 -4.390625 7.5625 -3.96875 7.84375 -3.75 C 8.132812 -3.53125 8.503906 -3.421875 8.953125 -3.421875 C 9.171875 -3.421875 9.382812 -3.441406 9.59375 -3.484375 C 9.800781 -3.523438 9.960938 -3.554688 10.078125 -3.578125 L 10.796875 -0.203125 C 10.566406 -0.128906 10.242188 -0.046875 9.828125 0.046875 C 9.421875 0.140625 8.925781 0.195312 8.34375 0.21875 C 6.695312 0.289062 5.375 -0.0625 4.375 -0.84375 C 3.375 -1.625 2.878906 -2.816406 2.890625 -4.421875 L 2.890625 -12.9375 L 0.65625 -12.9375 L 0.65625 -16.34375 L 2.890625 -16.34375 L 2.890625 -20.25 L 7.421875 -20.25 L 7.421875 -16.34375 Z M 10.5 -16.34375 "/></g></g></g><g fill="#1a0f41" fill-opacity="1"><g transform="translate(204.272504, 238.368552)"><g><path d="M 6.34375 -9.453125 L 6.34375 0 L 1.8125 0 L 1.8125 -21.78125 L 6.21875 -21.78125 L 6.21875 -13.453125 L 6.40625 -13.453125 C 6.78125 -14.421875 7.375 -15.175781 8.1875 -15.71875 C 9.007812 -16.269531 10.039062 -16.546875 11.28125 -16.546875 C 12.988281 -16.546875 14.359375 -16 15.390625 -14.90625 C 16.421875 -13.820312 16.9375 -12.320312 16.9375 -10.40625 L 16.9375 0 L 12.40625 0 L 12.40625 -9.59375 C 12.40625 -10.601562 12.148438 -11.382812 11.640625 -11.9375 C 11.128906 -12.5 10.410156 -12.78125 9.484375 -12.78125 C 8.566406 -12.78125 7.8125 -12.488281 7.21875 -11.90625 C 6.632812 -11.320312 6.34375 -10.503906 6.34375 -9.453125 Z M 6.34375 -9.453125 "/></g></g></g><g fill="#1a0f41" fill-opacity="1"><g transform="translate(222.967693, 238.368552)"><g><path d="M 9.25 0.3125 C 7.582031 0.3125 6.140625 -0.0234375 4.921875 -0.703125 C 3.710938 -1.390625 2.78125 -2.363281 2.125 -3.625 C 1.476562 -4.882812 1.15625 -6.375 1.15625 -8.09375 C 1.15625 -9.769531 1.476562 -11.242188 2.125 -12.515625 C 2.78125 -13.785156 3.703125 -14.773438 4.890625 -15.484375 C 6.078125 -16.191406 7.472656 -16.546875 9.078125 -16.546875 C 10.515625 -16.546875 11.8125 -16.238281 12.96875 -15.625 C 14.125 -15.019531 15.039062 -14.101562 15.71875 -12.875 C 16.40625 -11.644531 16.75 -10.101562 16.75 -8.25 L 16.75 -7.015625 L 5.625 -7.015625 L 5.625 -7 C 5.625 -5.78125 5.957031 -4.816406 6.625 -4.109375 C 7.289062 -3.410156 8.191406 -3.0625 9.328125 -3.0625 C 10.085938 -3.0625 10.742188 -3.21875 11.296875 -3.53125 C 11.847656 -3.851562 12.238281 -4.328125 12.46875 -4.953125 L 16.65625 -4.6875 C 16.332031 -3.164062 15.519531 -1.953125 14.21875 -1.046875 C 12.925781 -0.140625 11.269531 0.3125 9.25 0.3125 Z M 5.625 -9.8125 L 12.484375 -9.8125 C 12.484375 -10.789062 12.171875 -11.59375 11.546875 -12.21875 C 10.929688 -12.851562 10.128906 -13.171875 9.140625 -13.171875 C 8.140625 -13.171875 7.316406 -12.84375 6.671875 -12.1875 C 6.023438 -11.539062 5.675781 -10.75 5.625 -9.8125 Z M 5.625 -9.8125 "/></g></g></g><g fill="#1a0f41" fill-opacity="1"><g transform="translate(240.865294, 238.368552)"><g/></g></g><g fill="#1a0f41" fill-opacity="1"><g transform="translate(247.809528, 238.368552)"><g><path d="M 1.890625 0 L 1.890625 -21.78125 L 6.421875 -21.78125 L 6.421875 -13.59375 L 6.5625 -13.59375 C 6.769531 -14.039062 7.0625 -14.488281 7.4375 -14.9375 C 7.8125 -15.394531 8.304688 -15.773438 8.921875 -16.078125 C 9.535156 -16.390625 10.300781 -16.546875 11.21875 -16.546875 C 12.414062 -16.546875 13.515625 -16.234375 14.515625 -15.609375 C 15.515625 -14.992188 16.316406 -14.0625 16.921875 -12.8125 C 17.523438 -11.570312 17.828125 -10.015625 17.828125 -8.140625 C 17.828125 -6.328125 17.53125 -4.789062 16.9375 -3.53125 C 16.351562 -2.28125 15.5625 -1.332031 14.5625 -0.6875 C 13.5625 -0.0507812 12.441406 0.265625 11.203125 0.265625 C 10.316406 0.265625 9.566406 0.117188 8.953125 -0.171875 C 8.347656 -0.460938 7.847656 -0.828125 7.453125 -1.265625 C 7.066406 -1.710938 6.769531 -2.160156 6.5625 -2.609375 L 6.359375 -2.609375 L 6.359375 0 Z M 6.328125 -8.171875 C 6.328125 -6.710938 6.625 -5.539062 7.21875 -4.65625 C 7.820312 -3.78125 8.671875 -3.34375 9.765625 -3.34375 C 10.878906 -3.34375 11.726562 -3.789062 12.3125 -4.6875 C 12.90625 -5.582031 13.203125 -6.742188 13.203125 -8.171875 C 13.203125 -9.585938 12.90625 -10.734375 12.3125 -11.609375 C 11.726562 -12.492188 10.878906 -12.9375 9.765625 -12.9375 C 8.660156 -12.9375 7.8125 -12.503906 7.21875 -11.640625 C 6.625 -10.785156 6.328125 -9.628906 6.328125 -8.171875 Z M 6.328125 -8.171875 "/></g></g></g><g fill="#1a0f41" fill-opacity="1"><g transform="translate(266.83437, 238.368552)"><g><path d="M 1.8125 0 L 1.8125 -16.34375 L 6.203125 -16.34375 L 6.203125 -13.484375 L 6.375 -13.484375 C 6.664062 -14.503906 7.160156 -15.273438 7.859375 -15.796875 C 8.554688 -16.316406 9.367188 -16.578125 10.296875 -16.578125 C 10.734375 -16.578125 11.140625 -16.519531 11.515625 -16.40625 C 11.890625 -16.300781 12.226562 -16.15625 12.53125 -15.96875 L 11.171875 -12.234375 C 10.953125 -12.335938 10.71875 -12.425781 10.46875 -12.5 C 10.21875 -12.570312 9.9375 -12.609375 9.625 -12.609375 C 8.707031 -12.609375 7.929688 -12.296875 7.296875 -11.671875 C 6.660156 -11.054688 6.34375 -10.25 6.34375 -9.25 L 6.34375 0 Z M 1.8125 0 "/></g></g></g><g fill="#1a0f41" fill-opacity="1"><g transform="translate(279.670035, 238.368552)"><g><path d="M 9.1875 0.3125 C 7.539062 0.3125 6.113281 -0.0351562 4.90625 -0.734375 C 3.707031 -1.441406 2.78125 -2.425781 2.125 -3.6875 C 1.476562 -4.957031 1.15625 -6.429688 1.15625 -8.109375 C 1.15625 -9.796875 1.476562 -11.269531 2.125 -12.53125 C 2.78125 -13.800781 3.707031 -14.785156 4.90625 -15.484375 C 6.113281 -16.191406 7.539062 -16.546875 9.1875 -16.546875 C 10.84375 -16.546875 12.269531 -16.191406 13.46875 -15.484375 C 14.675781 -14.785156 15.601562 -13.800781 16.25 -12.53125 C 16.90625 -11.269531 17.234375 -9.796875 17.234375 -8.109375 C 17.234375 -6.429688 16.90625 -4.957031 16.25 -3.6875 C 15.601562 -2.425781 14.675781 -1.441406 13.46875 -0.734375 C 12.269531 -0.0351562 10.84375 0.3125 9.1875 0.3125 Z M 9.21875 -3.1875 C 10.332031 -3.1875 11.175781 -3.65625 11.75 -4.59375 C 12.332031 -5.53125 12.625 -6.710938 12.625 -8.140625 C 12.625 -9.566406 12.332031 -10.75 11.75 -11.6875 C 11.175781 -12.625 10.332031 -13.09375 9.21875 -13.09375 C 8.070312 -13.09375 7.207031 -12.625 6.625 -11.6875 C 6.039062 -10.75 5.75 -9.566406 5.75 -8.140625 C 5.75 -6.710938 6.039062 -5.53125 6.625 -4.59375 C 7.207031 -3.65625 8.070312 -3.1875 9.21875 -3.1875 Z M 9.21875 -3.1875 "/></g></g></g><g fill="#1a0f41" fill-opacity="1"><g transform="translate(298.046196, 238.368552)"><g><path d="M 5.03125 0 L 0.578125 -16.34375 L 5.171875 -16.34375 L 7.703125 -5.359375 L 7.84375 -5.359375 L 10.484375 -16.34375 L 14.984375 -16.34375 L 17.671875 -5.421875 L 17.8125 -5.421875 L 20.296875 -16.34375 L 24.875 -16.34375 L 20.4375 0 L 15.640625 0 L 12.828125 -10.28125 L 12.625 -10.28125 L 9.8125 0 Z M 5.03125 0 "/></g></g></g><g fill="#1a0f41" fill-opacity="1"><g transform="translate(323.50484, 238.368552)"><g><path d="M 15.40625 -11.671875 L 11.25 -11.421875 C 11.132812 -11.953125 10.847656 -12.40625 10.390625 -12.78125 C 9.929688 -13.15625 9.304688 -13.34375 8.515625 -13.34375 C 7.816406 -13.34375 7.222656 -13.191406 6.734375 -12.890625 C 6.253906 -12.597656 6.015625 -12.207031 6.015625 -11.71875 C 6.015625 -11.332031 6.171875 -11.003906 6.484375 -10.734375 C 6.796875 -10.460938 7.332031 -10.242188 8.09375 -10.078125 L 11.046875 -9.484375 C 14.191406 -8.835938 15.769531 -7.363281 15.78125 -5.0625 C 15.78125 -3.988281 15.460938 -3.046875 14.828125 -2.234375 C 14.203125 -1.429688 13.34375 -0.804688 12.25 -0.359375 C 11.15625 0.0859375 9.90625 0.3125 8.5 0.3125 C 6.332031 0.3125 4.609375 -0.132812 3.328125 -1.03125 C 2.046875 -1.9375 1.296875 -3.171875 1.078125 -4.734375 L 5.546875 -4.96875 C 5.679688 -4.300781 6.003906 -3.796875 6.515625 -3.453125 C 7.035156 -3.117188 7.703125 -2.953125 8.515625 -2.953125 C 9.304688 -2.953125 9.941406 -3.101562 10.421875 -3.40625 C 10.910156 -3.71875 11.160156 -4.117188 11.171875 -4.609375 C 11.148438 -5.410156 10.453125 -5.953125 9.078125 -6.234375 L 6.25 -6.796875 C 3.082031 -7.429688 1.503906 -8.988281 1.515625 -11.46875 C 1.515625 -13.039062 2.144531 -14.28125 3.40625 -15.1875 C 4.675781 -16.09375 6.359375 -16.546875 8.453125 -16.546875 C 10.515625 -16.546875 12.140625 -16.109375 13.328125 -15.234375 C 14.515625 -14.367188 15.207031 -13.179688 15.40625 -11.671875 Z M 15.40625 -11.671875 "/></g></g></g><g fill="#1a0f41" fill-opacity="1"><g transform="translate(340.328389, 238.368552)"><g><path d="M 9.25 0.3125 C 7.582031 0.3125 6.140625 -0.0234375 4.921875 -0.703125 C 3.710938 -1.390625 2.78125 -2.363281 2.125 -3.625 C 1.476562 -4.882812 1.15625 -6.375 1.15625 -8.09375 C 1.15625 -9.769531 1.476562 -11.242188 2.125 -12.515625 C 2.78125 -13.785156 3.703125 -14.773438 4.890625 -15.484375 C 6.078125 -16.191406 7.472656 -16.546875 9.078125 -16.546875 C 10.515625 -16.546875 11.8125 -16.238281 12.96875 -15.625 C 14.125 -15.019531 15.039062 -14.101562 15.71875 -12.875 C 16.40625 -11.644531 16.75 -10.101562 16.75 -8.25 L 16.75 -7.015625 L 5.625 -7.015625 L 5.625 -7 C 5.625 -5.78125 5.957031 -4.816406 6.625 -4.109375 C 7.289062 -3.410156 8.191406 -3.0625 9.328125 -3.0625 C 10.085938 -3.0625 10.742188 -3.21875 11.296875 -3.53125 C 11.847656 -3.851562 12.238281 -4.328125 12.46875 -4.953125 L 16.65625 -4.6875 C 16.332031 -3.164062 15.519531 -1.953125 14.21875 -1.046875 C 12.925781 -0.140625 11.269531 0.3125 9.25 0.3125 Z M 5.625 -9.8125 L 12.484375 -9.8125 C 12.484375 -10.789062 12.171875 -11.59375 11.546875 -12.21875 C 10.929688 -12.851562 10.128906 -13.171875 9.140625 -13.171875 C 8.140625 -13.171875 7.316406 -12.84375 6.671875 -12.1875 C 6.023438 -11.539062 5.675781 -10.75 5.625 -9.8125 Z M 5.625 -9.8125 "/></g></g></g><g fill="#1a0f41" fill-opacity="1"><g transform="translate(358.225989, 238.368552)"><g><path d="M 1.8125 0 L 1.8125 -16.34375 L 6.203125 -16.34375 L 6.203125 -13.484375 L 6.375 -13.484375 C 6.664062 -14.503906 7.160156 -15.273438 7.859375 -15.796875 C 8.554688 -16.316406 9.367188 -16.578125 10.296875 -16.578125 C 10.734375 -16.578125 11.140625 -16.519531 11.515625 -16.40625 C 11.890625 -16.300781 12.226562 -16.15625 12.53125 -15.96875 L 11.171875 -12.234375 C 10.953125 -12.335938 10.71875 -12.425781 10.46875 -12.5 C 10.21875 -12.570312 9.9375 -12.609375 9.625 -12.609375 C 8.707031 -12.609375 7.929688 -12.296875 7.296875 -11.671875 C 6.660156 -11.054688 6.34375 -10.25 6.34375 -9.25 L 6.34375 0 Z M 1.8125 0 "/></g></g></g></svg>